# xmcd CD database file
#
# Track frame offsets:
#	150
#	16005
#	34673
#	55833
#	84755
#	101584
#	128357
#	151567
#	168221
#	198151
#	210556
#
# Disc length: 3055 seconds
#
# Revision: 0
# Processed by: cddbd v1.5.2PL0 Copyright (c) Steve Scherf et al.
# Submitted via: CDex 1.51
#
DISCID=6c0bed0b
DTITLE=Jerry Waddel - A Night With The Blues
DYEAR=2000
DGENRE=Blues
TTITLE0=Momma Kat
TTITLE1=I Got To
TTITLE2=You Do Me Right
TTITLE3=Feelin Good
TTITLE4=Down That Road
TTITLE5=Talk About It
TTITLE6=A Night With The Blues
TTITLE7=Amy-Anna Lon
TTITLE8=Thinkin About You
TTITLE9=Big Butt Blonde
TTITLE10=Give Me Love
EXTD=YEAR: 2000
EXTT0=
EXTT1=
EXTT2=
EXTT3=
EXTT4=
EXTT5=
EXTT6=
EXTT7=
EXTT8=
EXTT9=
EXTT10=
PLAYORDER=
